
        <svg xmlns="http://www.w3.org/2000/svg" xmlns:xlink="http://www.w3.org/1999/xlink" version="1.1" width="3182.8571428571427" height="3182.8571428571427" viewBox="0 0 3182.8571428571427 3182.8571428571427">
			
			<g transform="scale(9.142857142857142) translate(10, 10)">
				<defs id="SvgjsDefs6385"/><g id="SvgjsG6386" featureKey="rootContainer" transform="matrix(6.5625,0,0,6.5625,0,0)" fill="#000"><circle cx="25" cy="25" r="25"/></g><g id="SvgjsG6387" featureKey="symbolFeature-0" transform="matrix(1.3726593305688568,0,0,1.3726593305688568,94.23371794506598,53.23483107342479)" fill="#ffffff"><path xmlns="http://www.w3.org/2000/svg" d="M62,95c-2.5-5-7.6-8.5-13.6-8.5c-6,0-11.1,3.5-13.6,8.5H62z"/><g xmlns="http://www.w3.org/2000/svg"><path d="M47.4,85c-6.4,0-12.9-1.6-18.9-4.8l1.4-2.6c17.8,9.7,40.2,3.1,49.9-14.7c4.7-8.6,5.7-18.6,3-28   c-2.8-9.4-9.1-17.2-17.7-21.9l1.4-2.6c9.3,5.1,16.1,13.5,19.1,23.7c3,10.2,1.9,20.9-3.2,30.3C75.2,77.5,61.5,85,47.4,85z"/><circle cx="69.2" cy="7.1" r="2.9"/></g><circle xmlns="http://www.w3.org/2000/svg" cx="26.2" cy="83.8" r="2.9"/><path xmlns="http://www.w3.org/2000/svg" d="M74.7,24.1l0-0.1c-4-4.8-9.2-8.4-15.2-10.4l0,0.1c-3.5-1.2-7.2-1.8-11-1.8c-3.2,0-6.2,0.4-9.1,1.2l0.1,0  c-5.2,1.4-9.9,4.1-13.8,7.6c0,0-0.1,0.1-0.1,0.1c-0.4,0.3-0.7,0.7-1.1,1c0,0-0.1,0.1-0.1,0.1c-0.4,0.4-0.7,0.8-1.1,1.1  c-0.1,0.1-0.1,0.1-0.2,0.2c-0.3,0.3-0.5,0.6-0.8,0.9c-0.2,0.2-0.3,0.4-0.5,0.6c-0.1,0.2-0.2,0.3-0.4,0.5c-0.2,0.3-0.4,0.5-0.6,0.8  c-0.1,0.1-0.1,0.2-0.2,0.3c-3.9,5.6-6.2,12.3-6.2,19.7c0,18.9,15.3,34.1,34.1,34.1s34.1-15.3,34.1-34.1C82.6,37.6,79.6,30,74.7,24.1  z M81.6,45.9c0,3.8-0.6,7.4-1.8,10.8l-0.5-1.4l-1.4,2l-2.8-1.1l-0.9-5.5l1.2-1.8l-0.4-2l2.1-6l1.1-3.4l-1.1-2.3L76.9,34H79l-1.6-3.3  l-2-1.6l-0.4-3C79.1,31.6,81.6,38.5,81.6,45.9z M48.5,12.8c4.1,0,8,0.7,11.6,2.1l1,2.2l-1.4,1.3l1.4,4.5l-0.5,1.4l2.1,1.4l-2.1,0.5  l-3.4-3.2l-7.5,3l-3.2,1.4l-1.6,2.8L44.3,27l-5.5-1.1l-3.9,2.1l-0.4,2.7l3.9,1.4l0.9,3.4l-1.4,2l1.6,1.5h3.5l4.1,3.7l3.6,4.2l3.7,2  l0.2,4.3l3.6,3.7l2.1,4.4L57,63l-5.2,4.4l-3-0.9l-2.8,2.7l-6,1.2l-3-0.9l-2.3,2.1l-0.9,1.8l1,1.6L32,72.6V70l5.3-8.9l0.8-3.6  L35.9,54l-0.4-5.2l3.7-7.1L37.6,40L36,37.5l-0.2-2.3l-1.4-2.3l-1.6-0.2l-2.1-5.2l-0.2-4.3l2.3-5.5l4.6-3l0,0  C40.9,13.5,44.6,12.8,48.5,12.8z"/></g><g id="SvgjsG6388" featureKey="nameFeature-0" transform="matrix(0.7753141195755459,0,0,0.7753141195755459,61.86013248281759,195.6576198959118)" fill="#ffffff"><path d="M15.68 11.440000000000001 c3.04 0 5.44 0.82668 7.2 2.48 s2.64 3.88 2.64 6.68 c0 2.8267 -0.88 5.06 -2.64 6.7 s-4.1468 2.46 -7.16 2.46 l-6.68 0 l0 10.24 l-6.28 0 l0 -28.56 l12.92 0 z M14.04 24.880000000000003 c1.8133 0 3.1667 -0.33332 4.06 -1 s1.34 -1.76 1.34 -3.28 c0 -1.4667 -0.43332 -2.5467 -1.3 -3.24 s-2.22 -1.04 -4.06 -1.04 l-5.04 0 l0 8.56 l5 0 z M55.33 11.440000000000001 l0 5.28 l-15.08 0 l0 6.12 l13.84 0 l0 4.88 l-13.84 0 l0 7 l15.4 0 l0 5.28 l-21.68 0 l0 -28.56 l21.36 0 z M78.66 11.440000000000001 l10.68 28.56 l-6.52 0 l-2.16 -6.36 l-10.68 0 l-2.24 6.36 l-6.36 0 l10.84 -28.56 l6.44 0 z M75.34 18.48 l-3.72 10.48 l7.4 0 l-3.6 -10.48 l-0.08 0 z M109.15 10.760000000000002 c3.3333 0 6.1332 0.94 8.4 2.82 s3.5734 4.3668 3.92 7.46 l-6.08 0 c-0.21332 -1.4133 -0.92 -2.6 -2.12 -3.56 s-2.5733 -1.44 -4.12 -1.44 c-2.4533 0 -4.36 0.88 -5.72 2.64 s-2.04 4.1468 -2.04 7.16 c0 2.9333 0.68668 5.26 2.06 6.98 s3.2733 2.58 5.7 2.58 c1.8133 0 3.28 -0.55332 4.4 -1.66 s1.8133 -2.6867 2.08 -4.74 l6.08 0 c-0.32 3.6267 -1.62 6.48 -3.9 8.56 s-5.1668 3.12 -8.66 3.12 c-4.1868 0 -7.5732 -1.38 -10.16 -4.14 s-3.88 -6.3268 -3.88 -10.7 c0 -4.4268 1.28 -8.0468 3.84 -10.86 s5.96 -4.22 10.2 -4.22 z M151.88 11.440000000000001 l0 5.28 l-15.08 0 l0 6.12 l13.84 0 l0 4.88 l-13.84 0 l0 7 l15.4 0 l0 5.28 l-21.68 0 l0 -28.56 l21.36 0 z M182.9 11.440000000000001 l0 23.28 l13.92 0 l0 5.28 l-20.2 0 l0 -28.56 l6.28 0 z M219.11 11.440000000000001 l10.68 28.56 l-6.52 0 l-2.16 -6.36 l-10.68 0 l-2.24 6.36 l-6.36 0 l10.84 -28.56 l6.44 0 z M215.79000000000002 18.48 l-3.72 10.48 l7.4 0 l-3.6 -10.48 l-0.08 0 z M250.28000000000003 11.440000000000001 c6.0532 0 9.08 2.3466 9.08 7.04 c0 2.6933 -1.2933 4.6932 -3.88 6 c1.76 0.50668 3.0733 1.3934 3.94 2.66 s1.3 2.7934 1.3 4.58 c0 2.56 -0.92668 4.58 -2.78 6.06 s-4.2868 2.22 -7.3 2.22 l-13.84 0 l0 -28.56 l13.48 0 z M249.48000000000002 23 c2.5333 0 3.8 -1.1333 3.8 -3.4 c0 -2.1867 -1.4133 -3.28 -4.24 -3.28 l-5.96 0 l0 6.68 l6.4 0 z M249.84000000000003 35.12 c3.0667 0 4.6 -1.2533 4.6 -3.76 c0 -2.72 -1.4933 -4.08 -4.48 -4.08 l-6.88 0 l0 7.84 l6.76 0 z"/></g><g id="SvgjsG6389" featureKey="sloganFeature-0" transform="matrix(1.43884897196488,0,0,1.43884897196488,94.90647376588365,239.25899236616576)" fill="#ffffff"><path d="M7.78 5.380000000000001 c1.6667 0 3.0666 0.47 4.2 1.41 s1.7867 2.1834 1.96 3.73 l-3.04 0 c-0.10666 -0.70666 -0.46 -1.3 -1.06 -1.78 s-1.2867 -0.72 -2.06 -0.72 c-1.2267 0 -2.18 0.44 -2.86 1.32 s-1.02 2.0734 -1.02 3.58 c0 1.4667 0.34334 2.63 1.03 3.49 s1.6367 1.29 2.85 1.29 c0.90666 0 1.64 -0.27666 2.2 -0.83 s0.90666 -1.3433 1.04 -2.37 l3.04 0 c-0.16 1.8133 -0.81 3.24 -1.95 4.28 s-2.5834 1.56 -4.33 1.56 c-2.0934 0 -3.7866 -0.69 -5.08 -2.07 s-1.94 -3.1634 -1.94 -5.35 c0 -2.2134 0.64 -4.0234 1.92 -5.43 s2.98 -2.11 5.1 -2.11 z M19.34 5.720000000000001 l0 5.48 l5.78 0 l0 -5.48 l3.14 0 l0 14.28 l-3.14 0 l0 -6.16 l-5.78 0 l0 6.16 l-3.14 0 l0 -14.28 l3.14 0 z M41.7 5.720000000000001 l0 2.64 l-7.54 0 l0 3.06 l6.92 0 l0 2.44 l-6.92 0 l0 3.5 l7.7 0 l0 2.64 l-10.84 0 l0 -14.28 l10.68 0 z M50.38 5.380000000000001 c1.6667 0 3.0666 0.47 4.2 1.41 s1.7867 2.1834 1.96 3.73 l-3.04 0 c-0.10666 -0.70666 -0.46 -1.3 -1.06 -1.78 s-1.2867 -0.72 -2.06 -0.72 c-1.2267 0 -2.18 0.44 -2.86 1.32 s-1.02 2.0734 -1.02 3.58 c0 1.4667 0.34334 2.63 1.03 3.49 s1.6367 1.29 2.85 1.29 c0.90666 0 1.64 -0.27666 2.2 -0.83 s0.90666 -1.3433 1.04 -2.37 l3.04 0 c-0.16 1.8133 -0.81 3.24 -1.95 4.28 s-2.5834 1.56 -4.33 1.56 c-2.0934 0 -3.7866 -0.69 -5.08 -2.07 s-1.94 -3.1634 -1.94 -5.35 c0 -2.2134 0.64 -4.0234 1.92 -5.43 s2.98 -2.11 5.1 -2.11 z M61.94 5.720000000000001 l0 5.92 l5.58 -5.92 l3.92 0 l-5.58 5.64 l6.12 8.64 l-3.94 0 l-4.3 -6.42 l-1.8 1.82 l0 4.6 l-3.14 0 l0 -14.28 l3.14 0 z M81.94 5.720000000000001 l0 14.28 l-3.14 0 l0 -14.28 l3.14 0 z M95.28 5.720000000000001 l0 2.64 l-4.28 0 l0 11.64 l-3.14 0 l0 -11.64 l-4.28 0 l0 -2.64 l11.7 0 z"/></g>
			</g>
		</svg>
	